<?xml version="1.0" encoding="UTF-8" standalone="no"?>
<svg
   version="1.1"
   id="Layer_1"
   x="0px"
   y="0px"
   width="1920"
   viewBox="0 0 1920 1080"
   enable-background="new 0 0 1920 1085"
   xml:space="preserve"
   sodipodi:docname="bg-calendar.svg"
   height="1080"
   inkscape:version="1.2 (dc2aeda, 2022-05-15)"
   xmlns:inkscape="http://www.inkscape.org/namespaces/inkscape"
   xmlns:sodipodi="http://sodipodi.sourceforge.net/DTD/sodipodi-0.dtd"
   xmlns="http://www.w3.org/2000/svg"
   xmlns:svg="http://www.w3.org/2000/svg"><defs
   id="defs882" /><sodipodi:namedview
   id="namedview880"
   pagecolor="#ffffff"
   bordercolor="#000000"
   borderopacity="0.25"
   inkscape:showpageshadow="2"
   inkscape:pageopacity="0.0"
   inkscape:pagecheckerboard="0"
   inkscape:deskcolor="#d1d1d1"
   showgrid="false"
   inkscape:zoom="0.70153685"
   inkscape:cx="640.0234"
   inkscape:cy="632.18347"
   inkscape:window-width="2704"
   inkscape:window-height="1665"
   inkscape:window-x="0"
   inkscape:window-y="63"
   inkscape:window-maximized="0"
   inkscape:current-layer="Layer_1" />

<path
   fill="#333333"
   opacity="1"
   stroke="none"
   d="M 1920,582.82769 V 1080 H 0 C 0,720.18383 0,360.33904 0.46864999,0.04355558 773.98351,-0.47847531 1308.1777,3.864389 1917.1482,3.864389 Z"
   id="path1214"
   sodipodi:nodetypes="cccccc"
   inkscape:highlight-color="#ffffff"
   style="fill:#ffffff;fill-opacity:1;stroke-width:1.0002"
   inkscape:label="path1214" /><g
   id="g1980"
   inkscape:label="Stripe"
   transform="matrix(0.99912847,0,0,1,1205.5466,1082.762)"><path
     fill="#343433"
     opacity="1"
     stroke="none"
     d="m 715.0765,-1082.762 c 0,174.02492 0,348.04982 -0.4641,522.60805 -58.1271,0.54028 -115.7901,0.53869 -173.4532,0.56915 -5.1601,0.003 -10.3325,0.0239 -15.4786,0.35675 -56.3076,3.64197 -98.6033,48.80231 -98.6038,105.20996 -7e-4,72.66199 0,145.32392 -6e-4,217.98592 -2e-4,28.2796 -19.0119,47.27 -47.3235,47.27 -463.97,2e-4 -927.94001,1e-4 -1391.91,0 -28.466,0 -47.5948,-19.1185 -47.5958,-47.6329 -0.01,-199.15384 -0.012,-398.30765 0.052,-597.46144 10e-4,-4.29492 0.3772,-8.69491 1.3485,-12.86661 4.9137,-21.10582 22.6978,-34.78571 45.2533,-34.84949 31.83104,-0.09 63.66251,-0.0121 95.49378,-0.0395 3.16101,-0.003 6.34853,-0.0177 9.47875,-0.39792 54.01996,-6.56089 93.04095,-50.59689 93.04129,-104.92735 1.5e-4,-29.99802 3e-5,-59.99612 3e-5,-89.99422 v -5.8303 H 715.0766"
     id="path459"
     sodipodi:nodetypes="ccsssssscccsccsscc" /><path
     fill="#333333"
     opacity="1"
     stroke="none"
     d="m 713.4018,-499.7469 c 0,165.65215 0,331.30426 0,496.9849 -639.9075,0 -1279.81486,0 -1920,0 0,-359.68051 0,-719.38973 0.4686,-1079.5495 110.0379,-0.4505 219.60709,-0.4505 329.3636,-0.4505 0,32.607 0.0207,64.4283 -0.007,96.24943 -0.0217,25.25326 -19.72803,44.90136 -45.00878,44.91176 -30.99913,0.0127 -61.99956,-0.1504 -92.99652,0.11065 -7.7754,0.0655 -15.7029,0.71387 -23.2826,2.36793 -49.984,10.90763 -83.3696,52.80047 -83.3723,104.18298 -0.011,198.9998 -0.01,397.9996 0.01,596.99942 3e-4,3.6605 0.1011,7.329 0.3522,10.9803 3.8562,56.07943 48.9687,98.22317 105.1083,98.22327 465.3202,4e-4 930.64036,5e-4 1395.9606,-1e-4 59.0989,0 105.4038,-46.40376 105.4039,-105.62467 1e-4,-72.83326 0,-145.66649 0.016,-218.49977 7e-4,-2.65901 -0.01,-5.35836 0.411,-7.97056 3.7379,-23.24336 22.0519,-38.68971 46.0886,-38.72761 44.6653,-0.0703 89.3308,-0.006 133.9962,-0.0279 15.829,-0.008 31.6581,-0.10413 47.4871,-0.16004 z"
     id="path461"
     style="stroke-width:1.00001" /></g>
















































































































































































































</svg>
